<?xml version="1.0" standalone="no"?>
<!DOCTYPE svg PUBLIC "-//W3C//DTD SVG 20010904//EN"
 "http://www.w3.org/TR/2001/REC-SVG-20010904/DTD/svg10.dtd">
<svg version="1.0" xmlns="http://www.w3.org/2000/svg"
 width="242.000000pt" height="209.000000pt" viewBox="0 0 242.000000 209.000000"
 preserveAspectRatio="xMidYMid meet">

<g transform="translate(0.000000,209.000000) scale(0.100000,-0.100000)"
fill="#000000" stroke="none">
<path d="M793 2013 c-15 -32 -57 -128 -93 -213 l-67 -155 -264 -5 c-280 -5
-289 -7 -328 -56 -19 -24 -21 -40 -21 -165 0 -133 1 -138 26 -168 25 -30 76
-51 124 -51 25 0 26 -3 108 -362 52 -232 88 -372 100 -388 11 -14 36 -35 58
-47 38 -22 45 -23 386 -23 l347 0 31 -63 c60 -122 160 -211 297 -264 58 -22
84 -27 173 -27 122 0 186 16 276 70 157 94 249 244 261 424 6 98 -6 167 -44
252 l-26 58 40 183 40 182 52 7 c107 16 131 55 131 217 0 130 -13 171 -62 201
-31 19 -50 20 -294 20 l-261 0 -82 194 c-45 106 -89 203 -97 215 -21 30 -72
29 -83 -1 -10 -26 -5 -38 89 -256 34 -79 59 -146 57 -148 -2 -2 -211 -3 -464
-2 l-460 3 78 180 c43 99 78 189 78 201 1 28 -18 44 -52 44 -25 0 -31 -7 -54
-57z m-216 -490 c-3 -10 -14 -39 -24 -65 -18 -47 -18 -48 4 -69 15 -16 28 -20
46 -15 20 5 32 23 58 86 l34 80 511 0 511 0 33 -75 c36 -84 59 -103 96 -86 30
13 31 49 4 110 -11 24 -20 45 -20 47 0 2 100 4 223 4 160 0 226 -3 235 -12 16
-16 16 -200 0 -216 -9 -9 -261 -12 -1074 -12 -584 0 -1069 3 -1078 6 -13 5
-16 25 -16 113 0 59 3 111 7 114 3 4 107 7 231 7 209 0 224 -1 219 -17z m1533
-337 c0 -16 -50 -239 -55 -244 -2 -2 -25 13 -52 34 -133 103 -294 136 -457 94
-105 -27 -169 -63 -247 -141 -101 -100 -159 -240 -159 -386 l0 -63 -324 0
c-294 0 -326 2 -344 18 -15 12 -29 54 -51 157 -57 260 -91 410 -106 471 -8 33
-15 63 -15 67 0 4 407 7 905 7 758 0 905 -2 905 -14z m-348 -207 c250 -52 402
-306 328 -548 -49 -162 -179 -274 -351 -303 -278 -48 -542 218 -491 494 46
246 277 407 514 357z"/>
<path d="M602 1078 c-18 -18 -15 -59 18 -266 37 -226 40 -234 82 -230 51 5 54
20 29 179 -42 263 -49 299 -61 314 -15 18 -51 20 -68 3z"/>
<path d="M962 1078 c-17 -17 -17 -469 0 -486 19 -19 55 -14 72 10 13 19 16 58
16 228 0 145 -4 212 -13 230 -14 28 -55 38 -75 18z"/>
<path d="M1642 777 c-6 -7 -12 -49 -14 -92 l-3 -80 -80 -3 c-86 -3 -105 -12
-105 -48 0 -38 35 -54 117 -54 l73 0 0 -78 c0 -83 9 -102 46 -102 41 0 54 25
54 106 l0 74 64 0 c104 0 136 22 112 78 -8 20 -16 22 -93 22 l-83 0 0 78 c0
64 -4 82 -18 95 -22 20 -55 22 -70 4z"/>
</g>
</svg>
