<?xml version="1.0" standalone="no"?>
<!DOCTYPE svg PUBLIC "-//W3C//DTD SVG 20010904//EN"
 "http://www.w3.org/TR/2001/REC-SVG-20010904/DTD/svg10.dtd">
<svg version="1.0" xmlns="http://www.w3.org/2000/svg"
 width="120.000000pt" height="101.000000pt" viewBox="0 0 120.000000 101.000000"
 preserveAspectRatio="xMidYMid meet">

<g transform="translate(0.000000,101.000000) scale(0.100000,-0.100000)"
fill="#FBFBFB" stroke="none">
<path d="M420 789 c-122 -145 -115 -139 -164 -139 -54 0 -76 -22 -76 -78 0
-38 15 -65 40 -74 6 -2 26 -82 45 -178 26 -131 40 -179 55 -195 19 -19 34 -20
258 -22 l237 -2 60 32 c73 39 105 83 105 144 0 47 -11 75 -42 110 -17 18 -19
30 -14 67 4 25 11 46 16 46 22 0 40 34 40 74 0 55 -22 76 -78 76 -41 0 -44 2
-149 125 -100 117 -143 150 -143 110 0 -9 41 -64 92 -123 l92 -107 -107 -3
c-59 -1 -155 -1 -213 0 l-106 3 91 107 c50 60 91 115 91 123 0 39 -42 8 -130
-96z m510 -194 c6 -8 10 -22 8 -32 -3 -17 -25 -18 -358 -18 -333 0 -355 1
-358 18 -9 46 0 47 358 47 283 0 340 -2 350 -15z m-52 -132 c-3 -25 -7 -28
-36 -25 -75 8 -154 -51 -168 -124 -8 -45 10 -109 41 -140 l24 -24 -188 0
c-139 0 -191 3 -199 13 -5 6 -22 73 -37 147 -14 74 -29 145 -32 158 l-5 22
302 0 301 0 -3 -27z m3 -89 c36 -18 62 -73 53 -112 -9 -37 -50 -79 -85 -86
-38 -7 -91 14 -113 45 -19 28 -20 85 -2 118 27 49 91 64 147 35z"/>
<path d="M402 417 c-6 -8 -5 -41 4 -92 7 -44 13 -86 13 -92 1 -7 10 -13 21
-13 24 0 25 16 9 124 -11 73 -27 98 -47 73z"/>
<path d="M560 320 c0 -93 1 -100 20 -100 19 0 20 7 20 100 0 93 -1 100 -20
100 -19 0 -20 -7 -20 -100z"/>
<path d="M832 316 c-13 -18 -25 -23 -40 -19 -33 8 -41 -25 -13 -49 34 -26 48
-23 77 22 38 58 17 98 -24 46z"/>
</g>
</svg>
