<?xml version="1.0" encoding="UTF-8" standalone="no"?>
<!-- Created with Inkscape (http://www.inkscape.org/) -->

<svg
   width="211.66667mm"
   height="211.01778mm"
   viewBox="0 0 211.66667 211.01778"
   version="1.1"
   id="svg5"
   xml:space="preserve"
   xmlns="http://www.w3.org/2000/svg"
   xmlns:svg="http://www.w3.org/2000/svg"><defs
     id="defs2" /><g
     id="layer1" /><g
     style="fill:#000000"
     id="g884"
     transform="matrix(0.43259078,0,0,0.43259078,0,-0.32444309)"><g
       id="g873">
	<g
   id="g871">
		<path
   d="M 476.9,232.45 H 147.2 l 55.9,-55.9 c 4.8,-4.8 4.8,-12.5 0,-17.3 -4.8,-4.8 -12.5,-4.8 -17.3,0 l -76.8,76.8 c -4.8,4.8 -4.8,12.5 0,17.3 l 76.8,76.8 c 2.4,2.4 5.5,3.6 8.7,3.6 3.2,0 6.3,-1.2 8.7,-3.6 4.8,-4.8 4.8,-12.5 0,-17.3 l -55.9,-55.9 H 477 c 6.8,0 12.3,-5.5 12.3,-12.3 -0.1,-6.8 -5.6,-12.2 -12.4,-12.2 z"
   id="path867" />
		<path
   d="M 24.5,476.25 V 13.05 C 24.5,6.25 19,0.75 12.2,0.75 5.4,0.75 0,6.25 0,13.05 v 463.2 c 0,6.8 5.5,12.3 12.2,12.3 6.7,0 12.3,-5.5 12.3,-12.3 z"
   id="path869" />
	</g>
</g></g></svg>
