<?xml version="1.0" standalone="no"?>
<!DOCTYPE svg PUBLIC "-//W3C//DTD SVG 20010904//EN"
 "http://www.w3.org/TR/2001/REC-SVG-20010904/DTD/svg10.dtd">
<svg version="1.0" xmlns="http://www.w3.org/2000/svg"
 width="115.000000pt" height="134.000000pt" viewBox="0 0 115.000000 134.000000"
 preserveAspectRatio="xMidYMid meet">

<g transform="translate(0.000000,134.000000) scale(0.100000,-0.100000)"
fill="#FBFBFB" stroke="none">
<path d="M499 1057 c-64 -34 -102 -93 -107 -166 -5 -74 10 -121 55 -168 19
-21 30 -39 24 -41 -6 -2 -38 -21 -70 -43 -75 -50 -125 -123 -147 -212 -21 -82
-13 -113 34 -140 114 -67 443 -76 584 -15 71 30 82 47 75 116 -10 113 -77 211
-184 270 l-53 28 31 30 c113 105 79 289 -63 348 -55 23 -127 20 -179 -7z m167
-36 c136 -62 131 -250 -8 -306 -107 -43 -228 41 -228 158 0 54 40 118 90 144
52 28 91 29 146 4z m57 -391 c100 -47 169 -138 183 -241 6 -42 4 -49 -17 -63
-31 -20 -133 -43 -229 -51 -88 -8 -238 8 -313 33 -49 16 -52 19 -55 55 -9 112
91 241 221 283 55 18 153 11 210 -16z"/>
</g>
</svg>
