<?xml version="1.0" standalone="no"?>
<!DOCTYPE svg PUBLIC "-//W3C//DTD SVG 20010904//EN"
 "http://www.w3.org/TR/2001/REC-SVG-20010904/DTD/svg10.dtd">
<svg version="1.0" xmlns="http://www.w3.org/2000/svg"
 width="345.000000pt" height="290.000000pt" viewBox="0 0 345.000000 290.000000"
 preserveAspectRatio="xMidYMid meet">

<g transform="translate(0.000000,290.000000) scale(0.100000,-0.100000)"
fill="#000000" stroke="none">
<path d="M1561 2736 c-51 -28 -50 -22 -51 -613 l0 -553 -550 0 c-598 0 -593 0
-618 -55 -24 -51 -4 -112 43 -133 19 -9 171 -12 575 -12 l550 0 0 -550 c0
-598 0 -593 55 -618 33 -15 57 -15 90 0 55 25 55 20 55 618 l0 550 550 0 c404
0 556 3 575 12 29 13 55 55 55 88 0 33 -26 75 -55 88 -19 9 -171 12 -575 12
l-550 0 0 550 c0 404 -3 556 -12 575 -22 48 -88 68 -137 41z"/>
</g>
</svg>
