<?xml version="1.0" standalone="no"?>
<!DOCTYPE svg PUBLIC "-//W3C//DTD SVG 20010904//EN"
 "http://www.w3.org/TR/2001/REC-SVG-20010904/DTD/svg10.dtd">
<svg version="1.0" xmlns="http://www.w3.org/2000/svg"
 width="111.000000pt" height="99.000000pt" viewBox="0 0 111.000000 99.000000"
 preserveAspectRatio="xMidYMid meet">

<g transform="translate(0.000000,99.000000) scale(0.100000,-0.100000)"
fill="#000000" stroke="none">
<path d="M447 930 c-115 -20 -223 -106 -275 -218 -35 -76 -36 -190 -3 -274 81
-208 348 -293 535 -171 l38 25 113 -111 c80 -80 117 -110 129 -105 36 14 16
49 -89 154 l-104 105 37 74 c35 70 37 81 37 165 -1 79 -5 99 -30 150 -49 102
-152 185 -251 201 -75 12 -89 13 -137 5z m203 -96 c59 -32 121 -103 141 -161
7 -21 13 -67 13 -103 1 -115 -66 -220 -173 -272 -69 -34 -187 -32 -257 4 -28
15 -70 48 -92 73 -134 152 -76 401 111 475 77 30 184 24 257 -16z"/>
<path d="M311 705 c-50 -79 -53 -165 -6 -165 26 0 35 17 35 64 0 19 11 50 26
72 19 28 24 42 17 54 -20 30 -42 22 -72 -25z"/>
</g>
</svg>
